<svg xmlns="http://www.w3.org/2000/svg" viewBox="0 0 128 128" width="128" height="128">
  <defs>
    <linearGradient id="bg" x1="0" y1="0" x2="1" y2="1">
      <stop offset="0%" stop-color="#a78bfa"/>
      <stop offset="45%" stop-color="#8b5cf6"/>
      <stop offset="100%" stop-color="#7c3aed"/>
    </linearGradient>
    <radialGradient id="shine" cx="0.35" cy="0.3" r="0.55">
      <stop offset="0%" stop-color="#ddd6fe" stop-opacity="0.5"/>
      <stop offset="100%" stop-color="#8b5cf6" stop-opacity="0"/>
    </radialGradient>
  </defs>

  <path d="M18 30 L19.2 29 L22 30 L19.2 31 L18 34 L16.8 31 L14 30 L16.8 29Z" fill="#fbbf24" opacity="0.85"/>
  <path d="M110 36 L111.2 34.5 L114 36 L111.2 37.5 L110 40 L108.8 37.5 L106 36 L108.8 34.5Z" fill="#fbbf24" opacity="0.75"/>
  <path d="M22 70 L23 68.5 L26 70 L23 71.5 L22 74 L21 71.5 L18 70 L21 68.5Z" fill="#fbbf24" opacity="0.6"/>
  <path d="M106 66 L107 64.5 L110 66 L107 67.5 L106 70 L105 67.5 L102 66 L105 64.5Z" fill="#fbbf24" opacity="0.6"/>

  <path d="M36 66 C28 74,20 82,18 92 S22 102,26 96" stroke="#7c3aed" stroke-width="6" stroke-linecap="round" fill="none"/>
  <path d="M44 74 C36 82,30 92,34 100 S40 108,40 102" stroke="#7c3aed" stroke-width="6" stroke-linecap="round" fill="none"/>
  <path d="M84 74 C92 82,98 92,94 100 S88 108,88 102" stroke="#7c3aed" stroke-width="6" stroke-linecap="round" fill="none"/>
  <path d="M92 66 C100 74,108 82,110 92 S106 102,102 96" stroke="#7c3aed" stroke-width="6" stroke-linecap="round" fill="none"/>

  <circle cx="64" cy="50" r="32" fill="url(#bg)"/>
  <circle cx="64" cy="50" r="32" fill="url(#shine)"/>
  <ellipse cx="54" cy="36" rx="14" ry="8" fill="#ddd6fe" opacity="0.22"/>

  <path d="M54 80 C46 90,42 100,46 108 S54 116,52 110" stroke="#8b5cf6" stroke-width="6" stroke-linecap="round" fill="none"/>
  <path d="M60 82 C54 92,50 104,54 112 S62 120,60 114" stroke="#8b5cf6" stroke-width="6" stroke-linecap="round" fill="none"/>
  <path d="M68 82 C74 92,78 104,74 112 S66 120,68 114" stroke="#8b5cf6" stroke-width="6" stroke-linecap="round" fill="none"/>
  <path d="M74 80 C82 90,86 100,82 108 S74 116,76 110" stroke="#8b5cf6" stroke-width="6" stroke-linecap="round" fill="none"/>

  <ellipse cx="52" cy="47" rx="11" ry="12" fill="white"/>
  <ellipse cx="76" cy="47" rx="11" ry="12" fill="white"/>

  <circle cx="54" cy="48" r="8" fill="#1e1b4b"/>
  <circle cx="54" cy="48" r="5" fill="#2e1065"/>
  <circle cx="57" cy="43" r="3.5" fill="white"/>
  <circle cx="50" cy="51" r="2" fill="white" opacity="0.85"/>
  <circle cx="56" cy="45" r="1.2" fill="white" opacity="0.5"/>

  <circle cx="78" cy="48" r="8" fill="#1e1b4b"/>
  <circle cx="78" cy="48" r="5" fill="#2e1065"/>
  <circle cx="81" cy="43" r="3.5" fill="white"/>
  <circle cx="74" cy="51" r="2" fill="white" opacity="0.85"/>
  <circle cx="80" cy="45" r="1.2" fill="white" opacity="0.5"/>

  <path d="M57 60 Q64 67 71 60" stroke="#1e1b4b" stroke-width="2.5" stroke-linecap="round" fill="none"/>

  <ellipse cx="40" cy="56" rx="6" ry="3.5" fill="#c4b5fd" opacity="0.55"/>
  <ellipse cx="88" cy="56" rx="6" ry="3.5" fill="#c4b5fd" opacity="0.55"/>

  <circle cx="64" cy="12" r="12" fill="#fbbf24" opacity="0.12"/>
  <path d="M64 5 L66.1 9.2 L70.7 9.8 L67.3 13.1 L68.1 17.7 L64 15.5 L59.9 17.7 L60.7 13.1 L57.3 9.8 L61.9 9.2Z" fill="#fbbf24"/>
</svg>
