<svg xmlns="http://www.w3.org/2000/svg" viewBox="0 0 600 160" width="600" height="160">
  <defs>
    <linearGradient id="bodyGrad2" x1="30%" y1="0%" x2="70%" y2="100%">
      <stop offset="0%" style="stop-color:#86efac" />
      <stop offset="50%" style="stop-color:#4ade80" />
      <stop offset="100%" style="stop-color:#22c55e" />
    </linearGradient>
    <linearGradient id="clawGrad2" x1="0%" y1="0%" x2="100%" y2="100%">
      <stop offset="0%" style="stop-color:#bbf7d0" />
      <stop offset="100%" style="stop-color:#16a34a" />
    </linearGradient>
  </defs>
  
  <!-- Crab Icon -->
  <g transform="translate(20, 6) scale(0.65)">
    
    <!-- Legs Left -->
    <g fill="#16a34a">
      <ellipse cx="60" cy="130" rx="5" ry="10" transform="rotate(-30 60 130)"/>
      <ellipse cx="54" cy="114" rx="4" ry="9" transform="rotate(-20 54 114)"/>
      <ellipse cx="56" cy="99" rx="4" ry="8" transform="rotate(-10 56 99)"/>
    </g>
    
    <!-- Legs Right -->
    <g fill="#16a34a">
      <ellipse cx="140" cy="130" rx="5" ry="10" transform="rotate(30 140 130)"/>
      <ellipse cx="146" cy="114" rx="4" ry="9" transform="rotate(20 146 114)"/>
      <ellipse cx="144" cy="99" rx="4" ry="8" transform="rotate(10 144 99)"/>
    </g>
    
    
    <!-- LEFT CLAW -->
    <path d="M 62 90 Q 45 70 32 60" stroke="#22c55e" stroke-width="7" fill="none" stroke-linecap="round"/>
    
    <g transform="translate(18, 42) rotate(-35)">
      <ellipse cx="0" cy="0" rx="14" ry="11" fill="#22c55e"/>
      <path d="M -5 5 C -20 15, -25 30, -15 35 C -5 30, 0 20, 5 8 Z" fill="url(#clawGrad2)"/>
      <path d="M -5 -5 C -25 -15, -30 -35, -18 -40 C -8 -35, 0 -25, 5 -8 Z" fill="url(#clawGrad2)"/>
      <path d="M -15 -25 C -12 -25, -10 -20, -12 -15" stroke="#16a34a" stroke-width="1" fill="none"/>
      <path d="M -15 20 C -12 20, -10 15, -12 10" stroke="#16a34a" stroke-width="1" fill="none"/>
      <ellipse cx="5" cy="-2" rx="5" ry="3" fill="#dcfce7" opacity="0.5"/>
    </g>
    
    
    <!-- RIGHT CLAW -->
    <path d="M 138 90 Q 155 70 168 60" stroke="#22c55e" stroke-width="7" fill="none" stroke-linecap="round"/>
    
    <g transform="translate(182, 42) rotate(35)">
      <ellipse cx="0" cy="0" rx="14" ry="11" fill="#22c55e"/>
      <path d="M 5 5 C 20 15, 25 30, 15 35 C 5 30, 0 20, -5 8 Z" fill="url(#clawGrad2)"/>
      <path d="M 5 -5 C 25 -15, 30 -35, 18 -40 C 8 -35, 0 -25, -5 -8 Z" fill="url(#clawGrad2)"/>
      <path d="M 15 -25 C 12 -25, 10 -20, 12 -15" stroke="#16a34a" stroke-width="1" fill="none"/>
      <path d="M 15 20 C 12 20, 10 15, 12 10" stroke="#16a34a" stroke-width="1" fill="none"/>
      <ellipse cx="-5" cy="-2" rx="5" ry="3" fill="#dcfce7" opacity="0.5"/>
    </g>
    
    
    <!-- Body -->
    <ellipse cx="100" cy="100" rx="44" ry="34" fill="url(#bodyGrad2)"/>
    
    <ellipse cx="93" cy="91" rx="20" ry="12" fill="#bbf7d0" opacity="0.4"/>
    
    <!-- Eye Stalks -->
    <line x1="86" y1="75" x2="83" y2="60" stroke="#22c55e" stroke-width="4" stroke-linecap="round"/>
    
    <line x1="114" y1="75" x2="117" y2="60" stroke="#22c55e" stroke-width="4" stroke-linecap="round"/>
    
    
    <!-- Eyes -->
    <circle cx="83" cy="56" r="11" fill="white"/>
    
    <circle cx="117" cy="56" r="11" fill="white"/>
    
    <circle cx="83" cy="56" r="6" fill="#1f2937"/>
    
    <circle cx="117" cy="56" r="6" fill="#1f2937"/>
    
    <circle cx="85" cy="53" r="2.5" fill="white"/>
    
    <circle cx="119" cy="53" r="2.5" fill="white"/>
    
    
    <!-- Eyebrows -->
    <path d="M 75 45 Q 83 42 91 45" stroke="#15803d" stroke-width="2" fill="none" stroke-linecap="round"/>
    
    <path d="M 109 45 Q 117 42 125 45" stroke="#15803d" stroke-width="2" fill="none" stroke-linecap="round"/>
    
    
    <!-- Mouth -->
    <path d="M 94 112 Q 100 117 106 112" stroke="#15803d" stroke-width="2.5" fill="none" stroke-linecap="round"/>
    
    
    <!-- Cheeks -->
    <circle cx="74" cy="103" r="4.5" fill="#fca5a5" opacity="0.4"/>
    
    <circle cx="126" cy="103" r="4.5" fill="#fca5a5" opacity="0.4"/>
  </g>
  
  
  <!-- Text -->
  <text x="150" y="105" font-family="Inter, -apple-system, BlinkMacSystemFont, sans-serif" font-size="48" font-weight="800" fill="#22c55e">Nemoclaw</text>
</svg>