<svg xmlns="http://www.w3.org/2000/svg" viewBox="0 0 36 36">
  <!-- OpenClaws Logo - Stylized Claw/Hand Icon -->
  <defs>
    <linearGradient id="clawGradient" x1="0%" y1="0%" x2="100%" y2="100%">
      <stop offset="0%" style="stop-color:#06b6d4"/>
      <stop offset="100%" style="stop-color:#0891b2"/>
    </linearGradient>
    <linearGradient id="clawGradientDark" x1="0%" y1="0%" x2="100%" y2="100%">
      <stop offset="0%" style="stop-color:#0891b2"/>
      <stop offset="100%" style="stop-color:#0e7490"/>
    </linearGradient>
  </defs>
  
  <!-- Main claw shape -->
  <path fill="url(#clawGradient)" d="M18 4C12 4 8 8 8 14v12c0 4 2 6 4 6s4-2 4-6v-8c0-2-1-3-2-3s-2 1-2 3v4c0 1-1 2-2 2s-2-1-2-2v-6c0-5 4-9 8-9s8 4 8 9v6c0 1-1 2-2 2s-2-1-2-2v-4c0-2-1-3-2-3s-2 1-2 3v8c0 4 2 6 4 6s4-2 4-6V14c0-6-4-10-8-10z"/>
  
  <!-- Claw tips -->
  <path fill="#164e63" d="M8 28l-2 4c-1 2 1 4 3 3l3-3-4-4z"/>
  <path fill="#164e63" d="M28 28l2 4c1 2-1 4-3 3l-3-3 4-4z"/>
  <path fill="#164e63" d="M16 30l-1 5c0 2 2 3 4 2l1-4-4-3z"/>
  <path fill="#164e63" d="M20 30l1 5c0 2-2 3-4 2l-1-4 4-3z"/>
  
  <!-- Center accent -->
  <circle cx="18" cy="18" r="3" fill="#06b6d4"/>
</svg>