<svg xmlns="http://www.w3.org/2000/svg" viewBox="0 0 600 160" width="600" height="160">
  <defs>
    <linearGradient id="bodyGrad2" x1="30%" y1="0%" x2="70%" y2="100%">
      <stop offset="0%" style="stop-color:#86efac" />
      <stop offset="50%" style="stop-color:#4ade80" />
      <stop offset="100%" style="stop-color:#22c55e" />
    </linearGradient>
    <linearGradient id="clawGrad2" x1="0%" y1="0%" x2="100%" y2="100%">
      <stop offset="0%" style="stop-color:#bbf7d0" />
      <stop offset="100%" style="stop-color:#22c55e" />
    </linearGradient>
  </defs>

  <!-- Crab Icon -->
  <g transform="translate(20, 6) scale(0.65)">
    
    <!-- Legs Left -->
    <g fill="#16a34a">
      <ellipse cx="62" cy="128" rx="5" ry="9" transform="rotate(-25 62 128)"/>
      <ellipse cx="57" cy="113" rx="4" ry="8" transform="rotate(-18 57 113)"/>
      <ellipse cx="59" cy="99" rx="4" ry="7" transform="rotate(-10 59 99)"/>
    </g>

    <!-- Legs Right -->
    <g fill="#16a34a">
      <ellipse cx="138" cy="128" rx="5" ry="9" transform="rotate(25 138 128)"/>
      <ellipse cx="143" cy="113" rx="4" ry="8" transform="rotate(18 143 113)"/>
      <ellipse cx="141" cy="99" rx="4" ry="7" transform="rotate(10 141 99)"/>
    </g>

    
    <!-- LEFT CLAW -->
    <path d="M 64 88 Q 48 70 35 58" stroke="#22c55e" stroke-width="8" fill="none" stroke-linecap="round"/>

    <g transform="translate(22, 42) rotate(-30)">
      <circle cx="0" cy="0" r="10" fill="#22c55e"/>

      <path d="M -5 -5 
               Q -25 -15, -35 -35 
               Q -40 -42, -32 -45
               Q -22 -40, -12 -25
               Q -5 -15, 2 -6 Z" 
            fill="url(#clawGrad2)" stroke="#16a34a" stroke-width="0.5"/>

      <path d="M -5 5 
               Q -25 15, -35 35
               Q -40 42, -32 45
               Q -22 40, -12 25
               Q -5 15, 2 6 Z" 
            fill="url(#clawGrad2)" stroke="#16a34a" stroke-width="0.5"/>

      <path d="M -25 -25 Q -20 -22, -18 -15" stroke="#16a34a" stroke-width="1" fill="none"/>
      <path d="M -25 25 Q -20 22, -18 15" stroke="#16a34a" stroke-width="1" fill="none"/>

      <ellipse cx="8" cy="0" rx="4" ry="3" fill="#dcfce7" opacity="0.6"/>
    </g>

    
    <!-- RIGHT CLAW -->
    <path d="M 136 88 Q 152 70 165 58" stroke="#22c55e" stroke-width="8" fill="none" stroke-linecap="round"/>

    <g transform="translate(178, 42) rotate(30)">
      <circle cx="0" cy="0" r="10" fill="#22c55e"/>

      <path d="M 5 -5 
               Q 25 -15, 35 -35 
               Q 40 -42, 32 -45
               Q 22 -40, 12 -25
               Q 5 -15, -2 -6 Z" 
            fill="url(#clawGrad2)" stroke="#16a34a" stroke-width="0.5"/>

      <path d="M 5 5 
               Q 25 15, 35 35
               Q 40 42, 32 45
               Q 22 40, 12 25
               Q 5 15, -2 6 Z" 
            fill="url(#clawGrad2)" stroke="#16a34a" stroke-width="0.5"/>

      <path d="M 25 -25 Q 20 -22, 18 -15" stroke="#16a34a" stroke-width="1" fill="none"/>
      <path d="M 25 25 Q 20 22, 18 15" stroke="#16a34a" stroke-width="1" fill="none"/>

      <ellipse cx="-8" cy="0" rx="4" ry="3" fill="#dcfce7" opacity="0.6"/>
    </g>

    
    <!-- Body -->
    <ellipse cx="100" cy="98" rx="42" ry="32" fill="url(#bodyGrad2)"/>

    <ellipse cx="93" cy="90" rx="18" ry="11" fill="#bbf7d0" opacity="0.5"/>

    
    <!-- Eye Stalks -->
    <line x1="86" y1="74" x2="84" y2="60" stroke="#22c55e" stroke-width="4" stroke-linecap="round"/>

    <line x1="114" y1="74" x2="116" y2="60" stroke="#22c55e" stroke-width="4" stroke-linecap="round"/>

    
    <!-- Eyes -->
    <circle cx="84" cy="56" r="10" fill="white"/>

    <circle cx="116" cy="56" r="10" fill="white"/>

    <circle cx="84" cy="56" r="6" fill="#1f2937"/>

    <circle cx="116" cy="56" r="6" fill="#1f2937"/>

    <circle cx="86" cy="53" r="2.5" fill="white"/>

    <circle cx="118" cy="53" r="2.5" fill="white"/>

    
    <!-- Eyebrows -->
    <path d="M 77 44 Q 84 41 91 44" stroke="#15803d" stroke-width="2" fill="none" stroke-linecap="round"/>

    <path d="M 109 44 Q 116 41 123 44" stroke="#15803d" stroke-width="2" fill="none" stroke-linecap="round"/>

    
    <!-- Mouth -->
    <path d="M 94 110 Q 100 115 106 110" stroke="#15803d" stroke-width="2.5" fill="none" stroke-linecap="round"/>

    
    <!-- Cheeks -->
    <circle cx="75" cy="100" r="4" fill="#fca5a5" opacity="0.4"/>

    <circle cx="125" cy="100" r="4" fill="#fca5a5" opacity="0.4"/>
  </g>

  
  <!-- Text -->
  <text x="155" y="105" font-family="Inter, -apple-system, BlinkMacSystemFont, sans-serif" font-size="48" font-weight="800" fill="#22c55e">Nemoclaw</text>
</svg>